# xmcd
#
# Track frame offsets:
#	182
#	16132
#	32215
#	47452
#	67315
#	96520
#	115735
#	129830
#	150435
#	164780
#	182697
#	204452
#	219235
#	238722
#	260075
#	279100
#
# Disc length: 3987 seconds
# Revision: 0
# Processed by: cddbd v1.5.2PL0 Copyright (c) Steve Scherf et al.
# Submitted via: dBpowerAMP V12.0
#
DISCID=de0f9110
DTITLE=Norman and Nancy Blake - The Hobo's Last Ride
DYEAR=1996
DGENRE=Country
TTITLE0=The Democratic Donkey (Is in His Stall Again)
TTITLE1=Tell Mother I'll Meet Her
TTITLE2=Forked Deer
TTITLE3=The Hobo's Last Ride
TTITLE4=Thebes
TTITLE5=Leaving Home
TTITLE6=Home Of The Soul
TTITLE7=Midnight, The Unconquered Outlaw
TTITLE8=The Old Grey Mare Came Tearin' Out Of The Wilderness
TTITLE9=I Know My Name Is There
TTITLE10=Starving To Death On The Government Claim
TTITLE11=Old Shady Bothreen
TTITLE12=Tying A Knot In The Devil's Tail
TTITLE13=Angel Gabriel
TTITLE14=The Two Little Orphans
TTITLE15=Memories That Never Die
EXTD=
EXTT0=
EXTT1=
EXTT2=
EXTT3=
EXTT4=
EXTT5=
EXTT6=
EXTT7=
EXTT8=
EXTT9=
EXTT10=
EXTT11=
EXTT12=
EXTT13=
EXTT14=
EXTT15=
PLAYORDER=
